<?xml version="1.0" encoding="utf-8"?>
<!-- Generator: Adobe Illustrator 16.0.0, SVG Export Plug-In . SVG Version: 6.00 Build 0)  -->
<!DOCTYPE svg PUBLIC "-//W3C//DTD SVG 1.1//EN" "http://www.w3.org/Graphics/SVG/1.1/DTD/svg11.dtd">
<svg version="1.1" xmlns="http://www.w3.org/2000/svg" xmlns:xlink="http://www.w3.org/1999/xlink" x="0px" y="0px" width="115px"
	 height="100px" viewBox="0 0 115 100" style="enable-background:new 0 0 115 100;" xml:space="preserve">
<style type="text/css">
<![CDATA[
	.st0{fill:#E5F9F8;}
	.st1{fill:#B9AED6;}
	.st2{fill:#92D1D1;}
]]>
</style>
<g id="Layer_2">
</g>
<g id="Layer_1">
	<polygon id="j" class="st1" points="74.1,28.8 64.1,37.4 85,47.8 	"/>
	<polygon id="i" class="st1" points="78.6,66 48.3,31.1 41.6,27.7 32.8,43 51.1,84.8 	"/>
	<polygon id="h" class="st0" points="42.3,26.4 62.7,36.6 73.3,27.5 70.5,22.6 44.5,22.6 	"/>
	<polygon id="g" class="st1" points="31.2,73 24.4,57.5 19.6,65.8 	"/>
	<polygon id="f" class="st0" points="49.1,84.1 31.8,44.6 28.8,50 25.4,55.9 33.4,74.4 	"/>
	<polygon id="e" class="st1" points="108.1,100 79.9,67.5 66.9,100 	"/>
	<polygon id="d" class="st2" points="49.4,86 18.9,67.1 0,100 29,100 	"/>
	<polygon id="c" class="st2" points="69.6,21.1 57.5,0 45.4,21.1 	"/>
	<polygon id="b" class="st0" points="78.1,68.1 31.6,100 57.5,100 65.3,100 	"/>
	<polygon id="a" class="st2" points="86.4,50.2 51.8,32.9 110.1,100 115,100 	"/>
</g>
</svg>
